HIERARCHY
ROOT root
{
	OFFSET 0.000000 0.000000 0.000000
	CHANNELS 6 Xposition Yposition Zposition Zrotation Yrotation Xrotation
	JOINT lhip
	{
		OFFSET 0.058581 -0.082280 -0.017664
		CHANNELS 3 Zrotation Yrotation Xrotation
		JOINT lknee
		{
			OFFSET 0.043451 -0.386469 0.008037
			CHANNELS 3 Zrotation Yrotation Xrotation
			JOINT lankle
			{
				OFFSET -0.014790 -0.426874 -0.037428
				CHANNELS 3 Zrotation Yrotation Xrotation
				JOINT ltoe
				{
					OFFSET 0.041054 -0.060286 0.122042
					CHANNELS 3 Zrotation Yrotation Xrotation
					End Site
					{
						OFFSET 0.000000 0.000000 0.000000
					}
				}
			}
		}
	}
	JOINT rhip
	{
		OFFSET -0.060310 -0.090513 -0.013543
		CHANNELS 3 Zrotation Yrotation Xrotation
		JOINT rknee
		{
			OFFSET -0.043257 -0.383688 -0.004843
			CHANNELS 3 Zrotation Yrotation Xrotation
			JOINT rankle
			{
				OFFSET 0.019056 -0.420046 -0.034562
				CHANNELS 3 Zrotation Yrotation Xrotation
				JOINT rtoe
				{
					OFFSET -0.034840 -0.062106 0.130323
					CHANNELS 3 Zrotation Yrotation Xrotation
					End Site
					{
						OFFSET 0.000000 0.000000 0.000000
					}
				}
			}
		}
	}
	JOINT lowerback
	{
		OFFSET 0.004439 0.124404 -0.038385
		CHANNELS 3 Zrotation Yrotation Xrotation
		JOINT upperback
		{
			OFFSET 0.004488 0.137956 0.026820
			CHANNELS 3 Zrotation Yrotation Xrotation
			JOINT chest
			{
				OFFSET -0.002265 0.056032 0.002855
				CHANNELS 3 Zrotation Yrotation Xrotation
				JOINT lowerneck
				{
					OFFSET -0.013390 0.211636 -0.033468
					CHANNELS 3 Zrotation Yrotation Xrotation
					JOINT upperneck
					{
						OFFSET 0.010113 0.088937 0.050410
						CHANNELS 3 Zrotation Yrotation Xrotation
						End Site
						{
							OFFSET 0.000000 0.000000 0.000000
						}
					}
				}
				JOINT lclavicle
				{
					OFFSET 0.071702 0.114000 -0.018898
					CHANNELS 3 Zrotation Yrotation Xrotation
					JOINT lshoulder
					{
						OFFSET 0.122921 0.045205 -0.019046
						CHANNELS 3 Zrotation Yrotation Xrotation
						JOINT lelbow
						{
							OFFSET 0.255332 -0.015649 -0.022946
							CHANNELS 3 Zrotation Yrotation Xrotation
							JOINT lwrist
							{
								OFFSET 0.265709 0.012698 -0.007375
								CHANNELS 3 Zrotation Yrotation Xrotation
								End Site
								{
									OFFSET 0.000000 0.000000 0.000000
								}
							}
						}
					}
				}
				JOINT rclavicle
				{
					OFFSET -0.082954 0.112472 -0.023707
					CHANNELS 3 Zrotation Yrotation Xrotation
					JOINT rshoulder
					{
						OFFSET -0.113228 0.046853 -0.008472
						CHANNELS 3 Zrotation Yrotation Xrotation
						JOINT relbow
						{
							OFFSET -0.260127 -0.014369 -0.031269
							CHANNELS 3 Zrotation Yrotation Xrotation
							JOINT rwrist
							{
								OFFSET -0.269108 0.006794 -0.006027
								CHANNELS 3 Zrotation Yrotation Xrotation
								End Site
								{
									OFFSET 0.000000 0.000000 0.000000
								}
							}
						}
					}
				}
			}
		}
	}
}
MOTION
Frames: 5
Frame Time: 0.033333
0.022551 0.215993 0.992825 95.996132 0.006138 87.492066 3.399420 1.276642 1.560629 -0.244484 -10.683190 4.669157 -0.861387 6.926135 -6.358187 0.000000 -0.000000 0.000000 -1.204272 -3.182335 0.527385 -1.790956 2.253212 10.154917 2.358018 -8.288933 -9.399075 0.000000 -0.000000 0.000000 -0.885689 1.537144 5.300448 0.348296 -3.605283 8.737257 -0.409333 -1.371274 -3.064315 1.653538 -5.421055 -0.298809 5.685441 -6.673466 -3.800905 -21.479304 -6.190860 6.434358 -47.356127 -8.966670 9.685339 2.775713 -30.758435 22.070260 -11.225685 -6.744565 1.778197 18.903543 10.142325 4.419124 54.992681 8.870572 13.469163 -4.117351 27.179905 13.993725 21.002797 4.055870 -4.588596 
0.020800 0.214974 0.992722 96.185858 -0.148487 87.323649 3.280676 1.117497 1.353163 -0.436490 -10.836734 5.140313 -1.025530 7.214702 -6.331322 0.000000 -0.000000 0.000000 -1.331302 -3.045792 0.042647 -1.629595 2.236124 11.270764 2.308163 -8.603152 -9.725445 0.000000 -0.000000 0.000000 -0.445551 1.562158 5.962058 0.572179 -3.423585 8.696489 -0.328923 -1.093717 -2.786095 1.833203 -5.270161 0.121049 5.462746 -7.255427 -4.461984 -20.509879 -6.358162 6.139696 -44.370266 -8.650681 9.414393 0.709212 -34.186391 23.191569 -13.804322 -7.353384 1.906954 18.690889 10.433332 4.263859 53.371988 8.878569 12.932504 -4.010106 28.288861 13.220467 22.247922 4.173606 -4.457761 
0.019186 0.214398 0.992953 96.585986 -0.463047 87.147089 2.931711 0.820666 1.113414 -0.588083 -11.244816 5.627080 -1.048807 7.552110 -6.442412 0.000000 -0.000000 0.000000 -1.744901 -2.998419 -0.296252 -1.299660 2.325576 12.183158 2.473571 -9.128079 -9.923143 0.000000 -0.000000 0.000000 -0.211171 1.704865 6.397386 1.135685 -3.438417 9.184363 -0.105335 -0.831127 -2.788988 1.844642 -5.071633 0.619444 5.290449 -7.689762 -5.049523 -19.420425 -6.544085 5.900077 -40.771865 -8.307266 9.389505 -1.733527 -38.098634 24.132526 -14.388747 -7.948287 1.656081 18.745309 10.897706 4.157298 50.906098 8.850897 12.429064 -3.848595 29.228580 11.643384 22.930856 4.285211 -4.556636 
0.016534 0.214416 0.993121 97.227775 -0.935173 86.961330 2.352199 0.064757 0.608772 -0.851890 -11.645113 6.445891 -1.172018 8.243351 -6.575455 0.000000 -0.000000 0.000000 -2.334539 -3.146438 -0.616487 -1.023401 2.427859 12.989885 2.608931 -9.794135 -10.096400 0.000000 -0.000000 0.000000 0.228287 2.229829 6.997043 2.101971 -3.561998 9.620749 0.417011 -0.604464 -2.610868 1.700025 -4.670981 1.203781 5.060535 -8.450016 -5.805778 -17.467763 -7.264174 5.391263 -35.938085 -7.869939 9.706794 -5.166985 -41.923434 24.984215 -15.666931 -8.524905 -0.390353 18.596622 11.514859 3.871890 47.437418 8.894034 11.689681 -3.869743 30.073335 9.094961 23.441511 4.113315 -5.066606 
0.014755 0.214998 0.993425 97.793716 -1.245848 86.795554 2.025067 -0.294381 0.262135 -1.173688 -12.064246 7.057483 -1.317005 8.606529 -6.615132 0.000000 -0.000000 0.000000 -2.737961 -3.179948 -0.605130 -0.888132 2.468438 13.236837 2.725857 -10.274237 -10.150137 0.000000 -0.000000 0.000000 0.557798 2.420272 7.407463 2.804971 -3.800456 9.908134 0.841251 -0.480530 -2.559500 1.537036 -4.453634 1.613963 4.913976 -8.766935 -6.340964 -16.326069 -7.850479 5.344012 -32.791907 -7.226873 9.817993 -6.787719 -44.005091 25.006941 -15.373834 -9.263833 -1.251566 18.528605 12.190590 3.827399 45.075690 8.940598 11.132955 -3.845302 30.212288 7.641236 23.026244 4.180462 -4.995312 
